# xmcd CD database file
#
# Track frame offsets:
#	150
#	18385
#	38237
#	56035
#	71467
#	95325
#	114367
#	128950
#	148757
#	164640
#
# Disc length: 2387 seconds
#
# Revision: 4
# Processed by: cddbd v1.5PL3 Copyright (c) Steve Scherf et al.
# Submitted via: CDex 1.51
#
DISCID=8c09510a
DTITLE=UFO - Making Contact
DYEAR=1983
DGENRE=Hard Rock
TTITLE0=Blinded By A Lie
TTITLE1=Diesel In The Dust
TTITLE2=A Fool For Love
TTITLE3=You And Me
TTITLE4=When It's Time To Rock
TTITLE5=The Way The Wild Wind Blows
TTITLE6=Call My Name
TTITLE7=All Over You
TTITLE8=No Getaway
TTITLE9=Push, It's Love
EXTD=YEAR: 1983
EXTT0=
EXTT1=
EXTT2=
EXTT3=
EXTT4=
EXTT5=
EXTT6=
EXTT7=
EXTT8=
EXTT9=
PLAYORDER=
